<svg xmlns="http://www.w3.org/2000/svg" viewBox="0 0 256 256">
  <defs>
    <linearGradient id="bg" x1="0%" y1="0%" x2="100%" y2="100%">
      <stop offset="0%" stop-color="#f7f0e5"/>
      <stop offset="100%" stop-color="#efe8db"/>
    </linearGradient>
    <linearGradient id="accent" x1="0%" y1="0%" x2="100%" y2="100%">
      <stop offset="0%" stop-color="#d48a3f"/>
      <stop offset="100%" stop-color="#8cbc53"/>
    </linearGradient>
  </defs>
  <rect width="256" height="256" rx="56" fill="url(#bg)"/>
  <rect x="34" y="42" width="188" height="172" rx="28" fill="#fffaf2" stroke="#dfcfbb" stroke-width="8"/>
  <path d="M82 98h92a18 18 0 0 1 18 18v32a18 18 0 0 1-18 18h-54l-26 22v-22H82a18 18 0 0 1-18-18v-32a18 18 0 0 1 18-18z" fill="url(#accent)"/>
  <circle cx="102" cy="132" r="9" fill="#fffaf2"/>
  <circle cx="128" cy="132" r="9" fill="#fffaf2"/>
  <circle cx="154" cy="132" r="9" fill="#fffaf2"/>
</svg>
